PathFileType	4	(X/Y/Z)	/home/nbianco/projects/addbio/data/HamnerRunning2013/Processed/subject10//results/MarkerData/run200.trc
DataRate	CameraRate	NumFrames	NumMarkers	Units	OrigDataRate	OrigDataStartFrame	OrigNumFrames
100	100	8	42	m	100	273	365
Frame#	Time	C7			CLAV			LACR			LASI			LCAL			LFAradius			LFAsuperior			LFAulna			LLEL			LMEL			LMT5			LPSI			LTB1			LTB2			LTB3			LTH1			LTH2			LTH3			LTOE			LUA1			LUA2			LUA3			RACR			RASI			RCAL			RFAradius			RFAsuperior			RFAulna			RLEL			RMEL			RMT5			RPSI			RTB1			RTB2			RTB3			RTH1			RTH2			RTH3			RTOE			RUA1			RUA2			RUA3		
		X1	Y1	Z1	X2	Y2	Z2	X3	Y3	Z3	X4	Y4	Z4	X5	Y5	Z5	X6	Y6	Z6	X7	Y7	Z7	X8	Y8	Z8	X9	Y9	Z9	X10	Y10	Z10	X11	Y11	Z11	X12	Y12	Z12	X13	Y13	Z13	X14	Y14	Z14	X15	Y15	Z15	X16	Y16	Z16	X17	Y17	Z17	X18	Y18	Z18	X19	Y19	Z19	X20	Y20	Z20	X21	Y21	Z21	X22	Y22	Z22	X23	Y23	Z23	X24	Y24	Z24	X25	Y25	Z25	X26	Y26	Z26	X27	Y27	Z27	X28	Y28	Z28	X29	Y29	Z29	X30	Y30	Z30	X31	Y31	Z31	X32	Y32	Z32	X33	Y33	Z33	X34	Y34	Z34	X35	Y35	Z35	X36	Y36	Z36	X37	Y37	Z37	X38	Y38	Z38	X39	Y39	Z39	X40	Y40	Z40	X41	Y41	Z41	X42	Y42	Z42

274	3.87	0.920312	1.47596	-0.330428	1.05018	1.36359	-0.314041	0.970928	1.4395	-0.484238	0.966693	0.971488	-0.446034	0.673753	0.111506	-0.340825	1.09813	1.12956	-0.498399	1.00499	1.15972	-0.604199	1.11144	1.08972	-0.551655	0.895514	1.15235	-0.652663	0.863788	1.12083	-0.591687	0.845717	0.0484735	-0.429809	0.803164	1.0103	-0.370323	0.931599	0.356754	-0.3707	0.85489	0.298501	-0.429534	0.827048	0.195385	-0.351875	0.937182	0.770304	-0.489768	0.99236	0.666521	-0.467006	0.934363	0.556988	-0.449689	0.891141	0.0675946	-0.329023	0.921959	1.32695	-0.573191	0.868589	1.26288	-0.551123	0.912117	1.2326	-0.6186	0.970224	1.44265	-0.18091	0.968935	0.966782	-0.203722	0.700786	0.302016	-0.258232	0.969713	1.06144	-0.0959346	0.87094	1.13076	-0.0224519	0.921377	1.01652	-0.0665835	0.778554	1.20304	-0.0184104	0.747132	1.18696	-0.0877562	0.767109	0.131195	-0.172574	0.800104	1.00298	-0.272999	0.998566	0.391144	-0.229622	0.917084	0.369044	-0.182927	0.842925	0.28587	-0.24312	0.970325	0.733421	-0.146364	1.05871	0.675703	-0.154794	1.03573	0.572158	-0.169364	0.815684	0.113504	-0.275677	0.895513	1.35122	-0.0859967	0.814211	1.31576	-0.114975	0.826718	1.25283	-0.0465848
275	3.88	0.92085	1.47939	-0.329617	1.05025	1.36703	-0.312449	0.972818	1.44396	-0.482688	0.965582	0.973138	-0.446629	0.654498	0.113877	-0.341332	1.10338	1.14072	-0.494105	1.01171	1.1665	-0.602078	1.11874	1.09943	-0.545613	0.903693	1.15588	-0.652511	0.871023	1.12433	-0.592042	0.825538	0.0484731	-0.430092	0.802926	1.01364	-0.370371	0.913519	0.357199	-0.370841	0.836395	0.300174	-0.429244	0.808244	0.197184	-0.352035	0.9306	0.771313	-0.488602	0.981938	0.665559	-0.466058	0.920433	0.557983	-0.448654	0.871066	0.0675169	-0.329223	0.92616	1.33126	-0.572628	0.87265	1.26723	-0.553666	0.919208	1.23659	-0.618849	0.969459	1.44596	-0.179826	0.968992	0.970389	-0.20416	0.719975	0.288366	-0.260449	0.959545	1.06644	-0.0961582	0.860911	1.13709	-0.0242968	0.909575	1.02168	-0.0686693	0.769725	1.21069	-0.021595	0.739444	1.19545	-0.0916788	0.797597	0.122856	-0.173928	0.799983	1.00696	-0.27276	1.01285	0.393762	-0.230137	0.931985	0.369046	-0.183743	0.863161	0.281247	-0.244418	0.974294	0.739796	-0.144849	1.06391	0.684156	-0.154292	1.04298	0.579846	-0.168662	0.848112	0.108409	-0.275642	0.891149	1.35652	-0.0860139	0.810045	1.32253	-0.117595	0.819389	1.25957	-0.0484197
276	3.89	0.921612	1.48321	-0.328808	1.05051	1.37091	-0.310752	0.974934	1.44887	-0.481038	0.964667	0.974903	-0.447181	0.635804	0.117442	-0.341876	1.10758	1.15242	-0.48972	1.01764	1.17372	-0.599668	1.12497	1.10959	-0.539414	0.91108	1.16009	-0.651957	0.877545	1.12866	-0.591972	0.80539	0.0484637	-0.430426	0.802934	1.01742	-0.370617	0.89527	0.35869	-0.370495	0.817916	0.302714	-0.428768	0.789462	0.199602	-0.352123	0.923905	0.772946	-0.487228	0.971462	0.665785	-0.464993	0.906629	0.559946	-0.447463	0.85105	0.0672944	-0.329282	0.929745	1.33608	-0.571846	0.876289	1.2722	-0.555467	0.925862	1.24141	-0.619171	0.968739	1.44973	-0.178771	0.969389	0.974704	-0.204561	0.740422	0.273546	-0.263315	0.950263	1.07235	-0.0966799	0.851862	1.14409	-0.0262559	0.898549	1.02799	-0.0708448	0.761775	1.21877	-0.0246797	0.732402	1.2043	-0.09535	0.828678	0.114307	-0.175271	0.799918	1.01169	-0.272429	1.02631	0.397299	-0.230171	0.9464	0.368728	-0.184517	0.883772	0.276065	-0.2456	0.977967	0.746633	-0.14318	1.06846	0.692678	-0.153796	1.04913	0.587669	-0.167866	0.881517	0.103465	-0.275443	0.886977	1.36251	-0.0862411	0.80629	1.32973	-0.119994	0.812847	1.26673	-0.0501942
277	3.9	0.922452	1.48731	-0.327904	1.05105	1.37519	-0.308982	0.977155	1.45408	-0.479365	0.96399	0.976845	-0.447609	0.617757	0.122204	-0.342345	1.11072	1.16432	-0.485388	1.02283	1.18113	-0.597081	1.13023	1.11992	-0.533398	0.917664	1.1648	-0.651249	0.883322	1.13353	-0.591558	0.785248	0.0483751	-0.430677	0.803163	1.02161	-0.370782	0.877233	0.361279	-0.369871	0.799679	0.306296	-0.428284	0.771015	0.202787	-0.352251	0.917651	0.775184	-0.485617	0.961744	0.667029	-0.463476	0.893304	0.562876	-0.446242	0.831261	0.0670369	-0.329182	0.933092	1.3413	-0.571019	0.879735	1.27762	-0.556486	0.931961	1.24682	-0.619577	0.968055	1.4539	-0.177773	0.970005	0.979576	-0.204838	0.762181	0.257883	-0.26667	0.941866	1.07869	-0.0973969	0.843726	1.15121	-0.0281751	0.888615	1.0348	-0.0731946	0.754774	1.22703	-0.0276165	0.726013	1.21341	-0.0987498	0.860483	0.105836	-0.176638	0.800037	1.01705	-0.272027	1.0389	0.401365	-0.22988	0.960409	0.367849	-0.185323	0.904819	0.270532	-0.246689	0.981172	0.753665	-0.141504	1.07223	0.701025	-0.153329	1.05409	0.595374	-0.167006	0.915943	0.0990359	-0.275337	0.883256	1.36897	-0.0866109	0.803043	1.33724	-0.122134	0.807178	1.27415	-0.0519216
278	3.91	0.923327	1.49161	-0.326937	1.05182	1.37982	-0.307186	0.979395	1.45946	-0.47772	0.963643	0.978996	-0.447735	0.600441	0.128026	-0.342672	1.11297	1.17606	-0.481293	1.0273	1.18862	-0.594544	1.13463	1.13027	-0.527821	0.923451	1.16985	-0.650508	0.888405	1.13871	-0.590912	0.765057	0.0482219	-0.430795	0.803674	1.02615	-0.370783	0.859803	0.364907	-0.369297	0.781905	0.310983	-0.427975	0.753233	0.206832	-0.352488	0.912215	0.777923	-0.483881	0.953103	0.668953	-0.461407	0.880671	0.566671	-0.445105	0.81181	0.0667655	-0.328982	0.936472	1.34686	-0.570193	0.883088	1.28333	-0.556891	0.937313	1.25253	-0.61977	0.967466	1.45833	-0.176829	0.970719	0.984761	-0.204927	0.785238	0.241684	-0.270339	0.934388	1.08514	-0.0982118	0.836426	1.1582	-0.0300082	0.88005	1.04159	-0.0757567	0.748684	1.23526	-0.0304121	0.720379	1.22266	-0.101936	0.893194	0.0978396	-0.178036	0.800474	1.02283	-0.2717	1.05063	0.405346	-0.229523	0.974075	0.366266	-0.186198	0.926315	0.264884	-0.247718	0.983747	0.760615	-0.139932	1.07512	0.708941	-0.152889	1.05773	0.60267	-0.16621	0.951232	0.0953728	-0.275371	0.880175	1.37564	-0.0869493	0.80038	1.34492	-0.123999	0.802356	1.28162	-0.0536008
279	3.92	0.92428	1.49603	-0.326015	1.05272	1.38471	-0.305407	0.981631	1.4649	-0.476114	0.963731	0.981352	-0.447383	0.583926	0.134767	-0.342922	1.11457	1.18728	-0.477563	1.03107	1.19611	-0.592205	1.13822	1.14056	-0.522713	0.928457	1.17508	-0.64965	0.892852	1.14402	-0.590119	0.744814	0.0480509	-0.43083	0.804499	1.03092	-0.370633	0.843242	0.369404	-0.369081	0.764767	0.316629	-0.427942	0.736338	0.211692	-0.35293	0.907654	0.781066	-0.482258	0.945346	0.671314	-0.459062	0.868814	0.571147	-0.444143	0.792653	0.0663602	-0.328786	0.93996	1.35266	-0.569375	0.886314	1.28922	-0.556951	0.941762	1.2583	-0.61928	0.967057	1.46286	-0.175924	0.971506	0.990068	-0.20479	0.809554	0.225223	-0.274148	0.927858	1.09152	-0.0990946	0.829909	1.16498	-0.0317994	0.872856	1.04813	-0.0784815	0.743407	1.24332	-0.0331103	0.715684	1.2318	-0.105041	0.926971	0.0907491	-0.179484	0.801227	1.02882	-0.271516	1.06148	0.408851	-0.229262	0.98746	0.363989	-0.187124	0.948223	0.259357	-0.248723	0.985544	0.767249	-0.138526	1.07704	0.716154	-0.152454	1.05984	0.609334	-0.165627	0.987087	0.0926976	-0.275645	0.877758	1.38228	-0.0870667	0.798342	1.3526	-0.125608	0.798288	1.28898	-0.055224
280	3.93	0.925367	1.50049	-0.325204	1.05369	1.38975	-0.303677	0.98389	1.47027	-0.474538	0.96431	0.983907	-0.446522	0.56829	0.142325	-0.343285	1.11571	1.19775	-0.474101	1.03417	1.2035	-0.590049	1.14106	1.15068	-0.517942	0.932698	1.18034	-0.648548	0.896675	1.14933	-0.589201	0.724629	0.0478873	-0.430888	0.805601	1.0358	-0.370314	0.827642	0.374538	-0.369427	0.748381	0.322968	-0.428245	0.72041	0.217165	-0.353755	0.90378	0.784527	-0.480867	0.938107	0.674032	-0.456934	0.857749	0.576093	-0.443441	0.77364	0.0657038	-0.328709	0.943471	1.35852	-0.568581	0.889298	1.29517	-0.556891	0.945282	1.26391	-0.617795	0.966887	1.46736	-0.175048	0.972371	0.995368	-0.204412	0.835087	0.208776	-0.277887	0.922271	1.09772	-0.100063	0.824174	1.17152	-0.0336044	0.866788	1.05441	-0.0812591	0.738863	1.25108	-0.0357532	0.712025	1.24057	-0.108187	0.961867	0.0848697	-0.181088	0.80219	1.03481	-0.271346	1.0714	0.411849	-0.22912	1.00062	0.361158	-0.18805	0.970445	0.254173	-0.249734	0.986469	0.77339	-0.1373	1.07795	0.722434	-0.151977	1.06028	0.615258	-0.16534	1.02319	0.0912674	-0.276417	0.875918	1.3887	-0.0868866	0.796944	1.36013	-0.126979	0.794874	1.29609	-0.056796
281	3.94	0.926612	1.50489	-0.324466	1.05473	1.39475	-0.302008	0.986212	1.47545	-0.472977	0.965366	0.98666	-0.445305	0.553637	0.150606	-0.343965	1.11652	1.20732	-0.47074	1.03664	1.21057	-0.588001	1.14325	1.16032	-0.513421	0.93619	1.18552	-0.647217	0.899839	1.15457	-0.588147	0.704653	0.0477382	-0.431049	0.806935	1.04065	-0.369827	0.813016	0.380061	-0.370408	0.73281	0.329787	-0.428975	0.705479	0.222994	-0.355172	0.900325	0.788174	-0.479509	0.931204	0.677072	-0.45542	0.847472	0.581333	-0.443095	0.754654	0.0648477	-0.328829	0.946862	1.36423	-0.567821	0.891931	1.30111	-0.556764	0.948006	1.26926	-0.615456	0.966991	1.47171	-0.174188	0.973271	1.00055	-0.203781	0.861732	0.192674	-0.281248	0.9176	1.10364	-0.101126	0.819255	1.17775	-0.0354383	0.861579	1.06049	-0.0839695	0.735035	1.2584	-0.0383467	0.709314	1.24878	-0.111381	0.997752	0.0802931	-0.183033	0.803278	1.0406	-0.270981	1.08031	0.414469	-0.229078	1.01356	0.357995	-0.188904	0.992804	0.249527	-0.250788	0.986546	0.778883	-0.136264	1.0779	0.727624	-0.151429	1.05912	0.620343	-0.16535	1.05924	0.0914065	-0.277923	0.874598	1.39476	-0.0865073	0.796193	1.36736	-0.128089	0.792067	1.30287	-0.058329
